<?xml version="1.0" standalone="no"?>
<!DOCTYPE svg PUBLIC "-//W3C//DTD SVG 20010904//EN"
 "http://www.w3.org/TR/2001/REC-SVG-20010904/DTD/svg10.dtd">
<svg version="1.0" xmlns="http://www.w3.org/2000/svg"
 width="305.000000pt" height="305.000000pt" viewBox="0 0 305.000000 305.000000"
 preserveAspectRatio="xMidYMid meet">

<g transform="translate(0.000000,305.000000) scale(0.100000,-0.100000)"
fill="#000000" stroke="none">
<path d="M60 2730 l0 -250 423 0 422 0 120 -138 c66 -75 415 -474 775 -887
360 -412 769 -880 908 -1040 139 -160 257 -291 263 -293 5 -2 9 531 9 1427 l0
1431 -686 0 c-533 0 -684 -3 -678 -12 7 -12 225 -261 362 -415 l64 -73 214 0
214 0 0 -512 c0 -282 -4 -508 -8 -503 -24 27 -714 819 -822 944 -69 79 -165
190 -215 246 -49 56 -133 152 -185 213 l-95 110 -542 1 -543 1 0 -250z"/>
<path d="M60 1095 l0 -1055 686 0 c415 0 684 4 682 9 -1 5 -99 120 -217 255
l-214 246 -214 0 -213 0 0 507 c0 496 0 507 19 488 24 -25 395 -451 610 -700
90 -104 185 -213 210 -240 25 -28 63 -70 85 -95 21 -25 122 -141 223 -257
l185 -213 329 0 c181 0 329 4 329 8 0 8 -244 288 -1300 1496 -278 318 -510
584 -516 592 -9 12 -71 14 -348 14 l-336 0 0 -1055z"/>
</g>
</svg>
